<svg xmlns="http://www.w3.org/2000/svg" xmlns:xlink="http://www.w3.org/1999/xlink" width="100" height="100" viewBox="0 0 100 100"><g><g transform="translate(50 50) scale(0.69 0.69) rotate(0) translate(-50 -50)" style="fill:#FFFFFF;"><svg fill="#FFFFFF" xmlns="http://www.w3.org/2000/svg" xmlns:xlink="http://www.w3.org/1999/xlink" version="1.1" x="0px" y="0px" viewBox="0 0 100 100" enable-background="new 0 0 100 100" xml:space="preserve"><path d="M48.209,64.141H21.375c-2.206,0-4-1.794-4-4V35.474h49.75v9.166c0,0.553,0.447,1,1,1s1-0.447,1-1v-20.28  c0-3.309-2.691-6-6-6h-41.75c-3.309,0-6,2.691-6,6v35.781c0,3.309,2.691,6,6,6h26.834c0.552,0,1-0.447,1-1  S48.761,64.141,48.209,64.141z M17.375,24.359c0-2.205,1.794-4,4-4h41.75c2.206,0,4,1.795,4,4v9.114h-49.75V24.359z M44.666,48.083  c0.552,0,1-0.448,1-1V42.25c0-0.553-0.448-1-1-1h-4.833c-0.552,0-1,0.447-1,1v4.833c0,0.552,0.448,1,1,1H44.666z M40.833,43.25  h2.833v2.833h-2.833V43.25z M32.194,48.083c0.552,0,1-0.448,1-1V42.25c0-0.553-0.448-1-1-1h-4.833c-0.552,0-1,0.447-1,1v4.833  c0,0.552,0.448,1,1,1H32.194z M28.361,43.25h2.833v2.833h-2.833V43.25z M57.139,48.083c0.553,0,1-0.448,1-1V42.25  c0-0.553-0.447-1-1-1h-4.833c-0.553,0-1,0.447-1,1v4.833c0,0.552,0.447,1,1,1H57.139z M53.306,43.25h2.833v2.833h-2.833V43.25z   M28.107,58.474h4.833c0.552,0,1-0.447,1-1v-4.833c0-0.552-0.448-1-1-1h-4.833c-0.552,0-1,0.448-1,1v4.833  C27.107,58.026,27.555,58.474,28.107,58.474z M29.107,53.641h2.833v2.833h-2.833V53.641z M40.579,58.474h4.833c0.552,0,1-0.447,1-1  v-4.833c0-0.552-0.448-1-1-1h-4.833c-0.552,0-1,0.448-1,1v4.833C39.579,58.026,40.027,58.474,40.579,58.474z M41.579,53.641h2.833  v2.833h-2.833V53.641z M69.125,64.644v-9.503c0-0.553-0.447-1-1-1s-1,0.447-1,1v10c0,0.313,0.146,0.608,0.396,0.797l7.92,6  c0.181,0.137,0.393,0.203,0.603,0.203c0.303,0,0.602-0.137,0.798-0.396c0.334-0.439,0.247-1.067-0.193-1.4L69.125,64.644z   M68.125,48.641c-9.098,0-16.5,7.402-16.5,16.5s7.402,16.5,16.5,16.5s16.5-7.402,16.5-16.5S77.223,48.641,68.125,48.641z   M68.125,79.641c-7.995,0-14.5-6.505-14.5-14.5s6.505-14.5,14.5-14.5s14.5,6.505,14.5,14.5S76.12,79.641,68.125,79.641z"></path></svg></g></g></svg>