<svg xmlns="http://www.w3.org/2000/svg" xmlns:xlink="http://www.w3.org/1999/xlink" width="100" height="100" viewBox="0 0 100 100"><g><g transform="translate(50 50) scale(0.69 0.69) rotate(0) translate(-50 -50)" style="fill:#000000;"><svg fill="#000000" xmlns:x="http://ns.adobe.com/Extensibility/1.0/" xmlns:i="http://ns.adobe.com/AdobeIllustrator/10.0/" xmlns:graph="http://ns.adobe.com/Graphs/1.0/" xmlns="http://www.w3.org/2000/svg" xmlns:xlink="http://www.w3.org/1999/xlink" version="1.1" x="0px" y="0px" viewBox="0 0 100 100" style="enable-background:new 0 0 100 100;" xml:space="preserve"><g><g i:extraneous="self"><path d="M91,37.8H73.1v-5.6C73.1,19.4,62.8,9,50,9S26.9,19.4,26.9,32.1v5.6H9c-4.3,0-7.4,4-6.2,8.2l10.9,40.3    c0.8,2.8,3.3,4.8,6.3,4.8h60.3c2.9,0,5.5-2,6.2-4.8l10.9-40.3C98.4,41.8,95.3,37.8,91,37.8z M37.6,32.1c0-6.8,5.5-12.4,12.4-12.4    s12.4,5.5,12.4,12.4v5.6H37.6V32.1z"></path></g></g></svg></g></g></svg>