<svg xmlns="http://www.w3.org/2000/svg" xmlns:xlink="http://www.w3.org/1999/xlink" width="100" height="100" viewBox="0 0 100 100"><g><g transform="translate(50 50) scale(0.69 0.69) rotate(0) translate(-50 -50)" style="fill:#FFFFFF;"><svg fill="#FFFFFF" xmlns:dc="http://purl.org/dc/elements/1.1/" xmlns:cc="http://creativecommons.org/ns#" xmlns:rdf="http://www.w3.org/1999/02/22-rdf-syntax-ns#" xmlns:svg="http://www.w3.org/2000/svg" xmlns="http://www.w3.org/2000/svg" xmlns:sodipodi="http://sodipodi.sourceforge.net/DTD/sodipodi-0.dtd" xmlns:inkscape="http://www.inkscape.org/namespaces/inkscape" version="1.1" x="0px" y="0px" viewBox="0 0 100 100"><g transform="translate(0,-952.36218)"><path style="font-size:medium;font-style:normal;font-variant:normal;font-weight:normal;font-stretch:normal;text-indent:0;text-align:start;text-decoration:none;line-height:normal;letter-spacing:normal;word-spacing:normal;text-transform:none;direction:ltr;block-progression:tb;writing-mode:lr-tb;text-anchor:start;baseline-shift:baseline;opacity:1;color:#000000;fill:#FFFFFF;fill-opacity:1;stroke:none;stroke-width:5;marker:none;visibility:visible;display:inline;overflow:visible;enable-background:accumulate;font-family:Sans;-inkscape-font-specification:Sans" d="M 50 5 C 25.182716 5 5 25.1827 5 50 C 5 74.8173 25.182716 95 50 95 C 74.817284 95 95 74.8173 95 50 C 95 25.1827 74.817284 5 50 5 z M 50 11 C 71.574644 11 89 28.42534 89 50 C 89 71.5746 71.574644 89 50 89 C 28.425356 89 11 71.5746 11 50 C 11 28.42534 28.425356 11 50 11 z M 49.96875 24.9375 A 3.0003 3.0003 0 0 0 47 28 L 47 47 L 28 47 A 3.0003 3.0003 0 0 0 27.6875 47 A 3.0040663 3.0040663 0 1 0 28 53 L 47 53 L 47 72 A 3.0003 3.0003 0 1 0 53 72 L 53 53 L 72 53 A 3.0003 3.0003 0 1 0 72 47 L 53 47 L 53 28 A 3.0003 3.0003 0 0 0 49.96875 24.9375 z " transform="translate(0,952.36218)"></path></g></svg></g></g></svg>