<svg fill="#FFFFFF" xmlns="http://www.w3.org/2000/svg" xmlns:xlink="http://www.w3.org/1999/xlink" version="1.1" x="0px" y="0px" viewBox="0 0 512 512" style="enable-background:new 0 0 512 512;" xml:space="preserve"><g><path d="M1,497c1.3-9.7,2.3-19.5,4-29.1c13.1-70.5,49.9-125.6,108.3-167.1c40.4,38.3,88,58.5,143.6,58.4   c55.4,0,102.9-20,143.7-58.6c8.1,6.4,16.6,12.5,24.4,19.4c49.2,43.7,78.2,98.2,86.1,163.7c0.5,4.4,1.2,8.9,1.8,13.3   c0,5.3,0,10.7,0,16c-170.7,0-341.3,0-512,0C1,507.7,1,502.3,1,497z"></path><path d="M269,1c10.1,2,20.4,3.3,30.2,6.1c60,16.7,104.4,69.8,110.6,131.9c8.6,86.1-54.6,161.7-141.1,168.8   c-77.9,6.5-149.6-49-162.8-126.1C91.7,99.3,143.2,22.5,224.9,4.4c6.6-1.5,13.4-2.3,20.1-3.4C253,1,261,1,269,1z"></path></g></svg>